<svg xmlns="http://www.w3.org/2000/svg" viewBox="0 0 572.85 132.23"><defs><style>.cls-1{fill:#fff;}</style></defs><g id="레이어_2" data-name="레이어 2"><g id="레이어_1-2" data-name="레이어 1"><path class="cls-1" d="M49.43,50,69.94,1.61h29L63.06,73v40H35.81V73L0,1.61H28.85Z"/><path class="cls-1" d="M199.19,59.61q0,16.31-6,28.85A44.71,44.71,0,0,1,176,107.78a47.82,47.82,0,0,1-25.37,6.78A48.51,48.51,0,0,1,125.35,108,44.54,44.54,0,0,1,108.17,89.3Q102,77.13,101.7,61.37V55.1q0-16.38,6-28.89A44.55,44.55,0,0,1,124.92,6.89,48.19,48.19,0,0,1,150.44.08,47.72,47.72,0,0,1,175.7,6.81,45.37,45.37,0,0,1,193,26q6.17,12.44,6.24,28.5Zm-27.32-4.67q0-16.61-5.55-25.21a17.8,17.8,0,0,0-15.88-8.61q-20.19,0-21.35,30.3L129,59.61q0,16.38,5.43,25.18t16.15,8.8a17.56,17.56,0,0,0,15.69-8.65q5.51-8.64,5.58-24.87Z"/><path class="cls-1" d="M306.09,113h-26.7L239.9,43.69V113H213V1.61H239.9l39.41,69.33V1.61h26.78Z"/><path class="cls-1" d="M414.3,99.25q-6.19,6.89-18.14,11.1A78.37,78.37,0,0,1,370,114.56q-21.89,0-35-13.4T321,63.9l-.08-9.65q0-16.44,5.81-28.73A43.18,43.18,0,0,1,343.4,6.62Q354.23,0,368.46,0q20.82,0,32.33,9.53T414.22,38H388.36q-1.38-9.34-6-13.32t-13-4a17.52,17.52,0,0,0-15.61,8.57q-5.52,8.58-5.59,24.49v6.73q0,16.69,5.7,25.06t17.95,8.38q10.49,0,15.61-4.66V71.93H368.77V53.49H414.3Z"/><path class="cls-1" d="M490.59,132.23h-69.1V113h69.1Z"/><path class="cls-1" d="M538,114.56q-19.05,0-30.84-11.37T495.34,73.62V71.47A50.81,50.81,0,0,1,500,49.05a34.49,34.49,0,0,1,13.74-15q9-5.31,21.42-5.31,17.46,0,27.55,10.82t10.1,30.19v10H521.58a18.6,18.6,0,0,0,6,10.94q4.67,4,12.09,4,12.24,0,19.13-8.57L570.63,100A32.89,32.89,0,0,1,557,110.61,46.18,46.18,0,0,1,538,114.56Zm-2.91-66q-11.32,0-13.47,15h26v-2q.15-6.19-3.14-9.6T535.05,48.59Z"/></g></g></svg>