<svg xmlns="http://www.w3.org/2000/svg" xmlns:xlink="http://www.w3.org/1999/xlink" width="27.829" height="31.094" viewBox="0 0 27.829 31.094">
  <defs>
    <clipPath id="clip-path">
      <rect id="사각형_4" data-name="사각형 4" width="27.829" height="31.094" transform="translate(0 0)" fill="none" stroke="#1a1a1a" stroke-width="1"/>
    </clipPath>
    <clipPath id="clip-path-3">
      <rect id="사각형_6" data-name="사각형 6" width="27.829" height="31.094" transform="translate(0 0)" fill="none"/>
    </clipPath>
  </defs>
  <g id="mail" transform="translate(0 0)">
    <g id="그룹_4" data-name="그룹 4">
      <g id="그룹_3" data-name="그룹 3" clip-path="url(#clip-path)">
        <rect id="사각형_3" data-name="사각형 3" width="26.829" height="18.106" transform="translate(0.5 12.488)" fill="none" stroke="#1a1a1a" stroke-linecap="round" stroke-linejoin="round" stroke-width="1"/>
      </g>
    </g>
    <path id="패스_3" data-name="패스 3" d="M7.207,6.494.5,12.488l6.707,5.994,6.708,5.994,6.707-5.994,6.707-5.994L20.622,6.494,13.915.5Z" fill="#1a1a1a"/>
    <g id="그룹_6" data-name="그룹 6">
      <g id="그룹_5" data-name="그룹 5" clip-path="url(#clip-path)">
        <path id="패스_4" data-name="패스 4" d="M20.622,6.494,13.915.5,7.207,6.494.5,12.488l6.707,5.994,6.708,5.994,6.707-5.994,6.707-5.994Z" fill="none" stroke="#1a1a1a" stroke-linecap="round" stroke-linejoin="round" stroke-width="1"/>
      </g>
    </g>
    <path id="패스_5" data-name="패스 5" d="M7.207,24.6.5,30.593H27.329L20.622,24.6l-6.707-5.994Z" fill="#fff"/>
    <g id="그룹_8" data-name="그룹 8">
      <g id="그룹_7" data-name="그룹 7" clip-path="url(#clip-path-3)">
        <path id="패스_6" data-name="패스 6" d="M13.915,18.606,20.622,24.6l6.708,5.994H.5L7.208,24.6Z" fill="none" stroke="#1a1a1a" stroke-linecap="round" stroke-linejoin="round" stroke-width="1"/>
        <path id="패스_7" data-name="패스 7" d="M16.931,7.216a5.01,5.01,0,0,1,2.03,1.9,5.284,5.284,0,0,1,.725,2.754,4.307,4.307,0,0,1-.621,2.481,1.982,1.982,0,0,1-1.719.9,1.709,1.709,0,0,1-.987-.274,1.421,1.421,0,0,1-.561-.786,2.489,2.489,0,0,1-2.194,1.06,2.89,2.89,0,0,1-1.5-.4,2.757,2.757,0,0,1-1.048-1.1,3.359,3.359,0,0,1-.378-1.609,3.294,3.294,0,0,1,.378-1.59,2.774,2.774,0,0,1,1.048-1.1,2.89,2.89,0,0,1,1.5-.4,2.96,2.96,0,0,1,1.164.219,2.246,2.246,0,0,1,.871.646V9.13h1.353v4.144a.928.928,0,0,0,.177.633.585.585,0,0,0,.457.2.827.827,0,0,0,.762-.566A4.03,4.03,0,0,0,18.65,11.9a4.352,4.352,0,0,0-.591-2.28,4.052,4.052,0,0,0-1.652-1.536,5.234,5.234,0,0,0-2.437-.548,5.1,5.1,0,0,0-2.462.579A4.094,4.094,0,0,0,9.85,9.727a4.7,4.7,0,0,0-.585,2.352,4.788,4.788,0,0,0,.579,2.377,4.071,4.071,0,0,0,1.639,1.615,5.007,5.007,0,0,0,2.438.579,5.719,5.719,0,0,0,1.213-.134,4.97,4.97,0,0,0,1.152-.4l.328.974a4.713,4.713,0,0,1-1.261.427,7.193,7.193,0,0,1-1.432.147,6.163,6.163,0,0,1-3.017-.72,5.144,5.144,0,0,1-2.035-1.986,5.683,5.683,0,0,1-.725-2.877,5.576,5.576,0,0,1,.731-2.846,5.189,5.189,0,0,1,2.054-1.981,6.266,6.266,0,0,1,3.041-.719,6.288,6.288,0,0,1,2.961.683m-1.773,6.332a1.93,1.93,0,0,0,.506-1.408,1.894,1.894,0,0,0-.506-1.39,1.746,1.746,0,0,0-1.3-.511,1.728,1.728,0,0,0-1.3.518,1.9,1.9,0,0,0-.5,1.383,1.945,1.945,0,0,0,.5,1.4,1.885,1.885,0,0,0,2.6.006" fill="#fff"/>
      </g>
    </g>
  </g>
</svg>
